<svg version="1.1" viewBox="0.0 0.0 1024.0 1024.0" fill="none" stroke="none" stroke-linecap="square" stroke-miterlimit="10" xmlns:xlink="http://www.w3.org/1999/xlink" xmlns="http://www.w3.org/2000/svg"><clipPath id="p.0"><path d="m0 0l1024.0 0l0 1024.0l-1024.0 0l0 -1024.0z" clip-rule="nonzero"/></clipPath><g clip-path="url(#p.0)"><path fill="#000000" fill-opacity="0.0" d="m0 0l1024.0 0l0 1024.0l-1024.0 0z" fill-rule="evenodd"/><path fill="#ffffff" d="m0 0l1024.0 0l0 1024.0l-1024.0 0z" fill-rule="evenodd"/><path fill="#e6b3e6" d="m298.76166 801.0216l0 0c-123.4324 -93.15387 -174.02747 -254.4497 -125.914856 -401.41357l143.36249 46.933594l0 0c-28.05542 85.69757 1.4475708 179.75238 73.42349 234.07227z" fill-rule="evenodd"/><path stroke="#ffffff" stroke-width="24.0" stroke-linejoin="round" stroke-linecap="butt" d="m298.76166 801.0216l0 0c-123.4324 -93.15387 -174.02747 -254.4497 -125.914856 -401.41357l143.36249 46.933594l0 0c-28.05542 85.69757 1.4475708 179.75238 73.42349 234.07227z" fill-rule="evenodd"/><path fill="#b3e6b3" d="m856.9025 400.26196l0 0c47.755127 147.38818 -3.4274902 308.8343 -127.3772 401.78754l-90.675415 -120.91229l0 0c72.27753 -54.20288 102.12317 -148.34534 74.276184 -234.29031z" fill-rule="evenodd"/><path stroke="#ffffff" stroke-width="24.0" stroke-linejoin="round" stroke-linecap="butt" d="m856.9025 400.26196l0 0c47.755127 147.38818 -3.4274902 308.8343 -127.3772 401.78754l-90.675415 -120.91229l0 0c72.27753 -54.20288 102.12317 -148.34534 74.276184 -234.29031z" fill-rule="evenodd"/><path fill="#66b3cc" d="m513.0908 152.742l0 0c154.94727 0.116485596 292.6963 98.683716 342.8131 245.30222l-143.02557 48.88867l0 0c-29.224121 -85.496155 -109.54834 -142.97269 -199.90118 -143.04062z" fill-rule="evenodd"/><path stroke="#ffffff" stroke-width="24.0" stroke-linejoin="round" stroke-linecap="butt" d="m513.0908 152.742l0 0c154.94727 0.116485596 292.6963 98.683716 342.8131 245.30222l-143.02557 48.88867l0 0c-29.224121 -85.496155 -109.54834 -142.97269 -199.90118 -143.04062z" fill-rule="evenodd"/><path fill="#ffb3cc" d="m727.64325 803.68536l0 0c-125.41907 90.968506 -294.78458 92.18408 -421.4964 3.0251465l86.97409 -123.60675l0 0c73.888214 51.990356 172.64865 51.281555 245.78299 -1.7640381z" fill-rule="evenodd"/><path stroke="#ffffff" stroke-width="24.0" stroke-linejoin="round" stroke-linecap="butt" d="m727.64325 803.68536l0 0c-125.41907 90.968506 -294.78458 92.18408 -421.4964 3.0251465l86.97409 -123.60675l0 0c73.888214 51.990356 172.64865 51.281555 245.78299 -1.7640381z" fill-rule="evenodd"/><path fill="#b3cce6" d="m172.35413 399.90692l0 0c50.406113 -150.18974 192.48196 -250.2672 350.87402 -247.15376l-2.970642 151.12785l0 0c-92.3616 -1.8155212 -175.20886 56.541656 -204.60168 144.1203z" fill-rule="evenodd"/><path stroke="#ffffff" stroke-width="24.0" stroke-linejoin="round" stroke-linecap="butt" d="m172.35413 399.90692l0 0c50.406113 -150.18974 192.48196 -250.2672 350.87402 -247.15376l-2.970642 151.12785l0 0c-92.3616 -1.8155212 -175.20886 56.541656 -204.60168 144.1203z" fill-rule="evenodd"/></g></svg>
